<svg width="16" height="16" viewBox="0 0 16 16" fill="none" xmlns="http://www.w3.org/2000/svg">
<g id="Regular / arrow-right">
<path id="&#239;&#129;&#163;" d="M9.05811 3.15637L13.6414 7.53136C13.7716 7.66157 13.8237 7.81782 13.8237 7.97407C13.8237 8.15636 13.7716 8.31261 13.6414 8.44282L9.05811 12.8178C8.79769 13.0522 8.40706 13.0522 8.17269 12.7918C7.93831 12.5574 7.93831 12.1407 8.19873 11.9064L11.6623 8.59907L2.80811 8.59907C2.44352 8.59907 2.18311 8.33866 2.18311 8.00012C2.18311 7.68762 2.44352 7.34907 2.80811 7.34907L11.6623 7.34907L8.19873 4.06782C7.93831 3.83345 7.93831 3.41678 8.17269 3.18241C8.40706 2.92199 8.79769 2.92199 9.05811 3.15637Z" fill="#004466"/>
</g>
</svg>
