<svg width="16" height="16" viewBox="0 0 16 16" fill="none" xmlns="http://www.w3.org/2000/svg">
<g id="Solid / arrow-right">
<path id="&#239;&#129;&#163;" d="M9.42562 3.23413L13.5923 7.40079C13.7485 7.55704 13.8267 7.76538 13.8267 7.97371C13.8267 8.20808 13.7485 8.41642 13.5923 8.57267L9.42562 12.7393C9.11312 13.0779 8.56624 13.0779 8.25374 12.7393C7.9152 12.4268 7.9152 11.88 8.25374 11.5675L10.9881 8.80704L2.99333 8.80704C2.55062 8.80704 2.18603 8.44246 2.18603 7.99975C2.18603 7.58308 2.55062 7.14038 2.99333 7.14038L10.9881 7.14038L8.25374 4.406C7.9152 4.0935 7.9152 3.54663 8.25374 3.23413C8.56624 2.89558 9.11312 2.89558 9.42562 3.23413Z" fill="white"/>
</g>
</svg>
