<svg width="24" height="24" viewBox="0 0 24 24" fill="none" xmlns="http://www.w3.org/2000/svg">
<g id="bars">
<path id="Primary" d="M3 4.97826C3 4.43614 3.42991 4 3.96429 4H20.0357C20.5701 4 21 4.43614 21 4.97826C21 5.52038 20.5701 5.95652 20.0357 5.95652H3.96429C3.42991 5.95652 3 5.52038 3 4.97826ZM3 11.5C3 10.9579 3.42991 10.5217 3.96429 10.5217H20.0357C20.5701 10.5217 21 10.9579 21 11.5C21 12.0421 20.5701 12.4783 20.0357 12.4783H3.96429C3.42991 12.4783 3 12.0421 3 11.5ZM21 18.0217C21 18.5639 20.5701 19 20.0357 19H3.96429C3.42991 19 3 18.5639 3 18.0217C3 17.4796 3.42991 17.0435 3.96429 17.0435H20.0357C20.5701 17.0435 21 17.4796 21 18.0217Z" fill="white"/>
</g>
</svg>
