<svg width="24" height="24" viewBox="0 0 24 24" fill="none" xmlns="http://www.w3.org/2000/svg">
<g id="Regular / cart-shopping">
<path id="&#239;&#129;&#186;" d="M4.6841 2.1499C5.10624 2.1499 5.49 2.49529 5.56675 2.91742L5.6435 3.37794H21.7614C22.5673 3.37794 23.1814 4.18383 22.9511 4.95135L20.8788 12.3196C20.7253 12.8568 20.2648 13.2022 19.6891 13.2022H7.52393L7.86931 15.0443H19.7275C20.2264 15.0443 20.6485 15.4664 20.6485 15.9653C20.6485 16.5025 20.2264 16.8863 19.7275 16.8863H7.10179C6.67966 16.8863 6.2959 16.5793 6.21914 16.1572L3.91658 3.99195H1.92103C1.38376 3.99195 1 3.60819 1 3.07093C1 2.57204 1.38376 2.1499 1.92103 2.1499H4.6841ZM19.2286 11.3602L20.9555 5.21999H6.02726L7.17854 11.3602H19.2286ZM5.91213 19.9564C5.91213 18.9586 6.71803 18.1143 7.75418 18.1143C8.75196 18.1143 9.59624 18.9586 9.59624 19.9564C9.59624 20.9925 8.75196 21.7984 7.75418 21.7984C6.71803 21.7984 5.91213 20.9925 5.91213 19.9564ZM20.6485 19.9564C20.6485 20.9925 19.8043 21.7984 18.8065 21.7984C17.7703 21.7984 16.9644 20.9925 16.9644 19.9564C16.9644 18.9586 17.7703 18.1143 18.8065 18.1143C19.8043 18.1143 20.6485 18.9586 20.6485 19.9564Z" fill="white"/>
</g>
</svg>
