<svg width="25" height="24" viewBox="0 0 25 24" fill="none" xmlns="http://www.w3.org/2000/svg">
<g id="classic-light / file-plus">
<path id="Primary" d="M17.375 20.75H7.375C6.68359 20.75 6.125 20.1914 6.125 19.5V4.5C6.125 3.80859 6.68359 3.25 7.375 3.25H12.375V7.625C12.375 8.66016 13.2148 9.5 14.25 9.5H18.625V19.5C18.625 20.1914 18.0664 20.75 17.375 20.75ZM14.25 8.25C13.9062 8.25 13.625 7.96875 13.625 7.625V3.26953C13.7344 3.29688 13.8359 3.35156 13.9141 3.43359L18.4414 7.96094C18.5234 8.04297 18.5781 8.14062 18.6055 8.25H14.25ZM7.375 2C5.99609 2 4.875 3.12109 4.875 4.5V19.5C4.875 20.8789 5.99609 22 7.375 22H17.375C18.7539 22 19.875 20.8789 19.875 19.5V8.40234C19.875 7.90625 19.6758 7.42969 19.3242 7.07812L14.8008 2.55078C14.4492 2.19922 13.9727 2 13.4766 2H7.375ZM11.75 18.25C11.75 18.5938 12.0312 18.875 12.375 18.875C12.7188 18.875 13 18.5938 13 18.25V15.75H15.5C15.8438 15.75 16.125 15.4688 16.125 15.125C16.125 14.7812 15.8438 14.5 15.5 14.5H13V12C13 11.6562 12.7188 11.375 12.375 11.375C12.0312 11.375 11.75 11.6562 11.75 12V14.5H9.25C8.90625 14.5 8.625 14.7812 8.625 15.125C8.625 15.4688 8.90625 15.75 9.25 15.75H11.75V18.25Z" fill="#0077B2"/>
</g>
</svg>
