<svg width="25" height="24" viewBox="0 0 25 24" fill="none" xmlns="http://www.w3.org/2000/svg">
<g id="classic-light / magnifying-glass">
<path id="Primary" d="M17.875 10.125C17.875 9.22216 17.6972 8.32817 17.3517 7.49405C17.0062 6.65994 16.4998 5.90204 15.8614 5.26364C15.223 4.62524 14.4651 4.11883 13.6309 3.77333C12.7968 3.42783 11.9028 3.25 11 3.25C10.0972 3.25 9.20317 3.42783 8.36905 3.77333C7.53494 4.11883 6.77704 4.62524 6.13864 5.26364C5.50024 5.90204 4.99383 6.65994 4.64833 7.49405C4.30283 8.32817 4.125 9.22216 4.125 10.125C4.125 11.0278 4.30283 11.9218 4.64833 12.7559C4.99383 13.5901 5.50024 14.348 6.13864 14.9864C6.77704 15.6248 7.53494 16.1312 8.36905 16.4767C9.20317 16.8222 10.0972 17 11 17C11.9028 17 12.7968 16.8222 13.6309 16.4767C14.4651 16.1312 15.223 15.6248 15.8614 14.9864C16.4998 14.348 17.0062 13.5901 17.3517 12.7559C17.6972 11.9218 17.875 11.0278 17.875 10.125ZM16.2852 16.2969C14.8672 17.5156 13.0195 18.25 11 18.25C6.51172 18.25 2.875 14.6133 2.875 10.125C2.875 5.63672 6.51172 2 11 2C15.4883 2 19.125 5.63672 19.125 10.125C19.125 12.1445 18.3906 13.9922 17.1719 15.4102L22.6914 20.9336C22.9336 21.1758 22.9336 21.5742 22.6914 21.8164C22.4492 22.0586 22.0508 22.0586 21.8086 21.8164L16.2852 16.2969Z" fill="#0077B2"/>
</g>
</svg>
