<svg width="25" height="24" viewBox="0 0 25 24" fill="none" xmlns="http://www.w3.org/2000/svg">
<g id="classic-light / message-question">
<path id="Primary" d="M10.125 18.25C10.125 17.5586 9.56641 17 8.875 17H5.125C4.43359 17 3.875 16.4414 3.875 15.75V4.5C3.875 3.80859 4.43359 3.25 5.125 3.25H20.125C20.8164 3.25 21.375 3.80859 21.375 4.5V15.75C21.375 16.4414 20.8164 17 20.125 17H14.707C14.4375 17 14.1719 17.0859 13.957 17.25L10.125 20.125V18.25ZM5.125 2C3.74609 2 2.625 3.12109 2.625 4.5V15.75C2.625 17.1289 3.74609 18.25 5.125 18.25H7.625H8.875V19.5V21.375C8.875 21.6133 9.00781 21.8281 9.21875 21.9336C9.42969 22.0391 9.68359 22.0156 9.875 21.875L14.707 18.25H20.125C21.5039 18.25 22.625 17.1289 22.625 15.75V4.5C22.625 3.12109 21.5039 2 20.125 2H5.125ZM9.21484 6.75781L9.20703 6.78516C9.12109 7.11719 9.32031 7.46094 9.65234 7.54688C9.98438 7.63281 10.3281 7.43359 10.4141 7.10156L10.4219 7.07422C10.5312 6.66016 10.9023 6.375 11.3281 6.375H13.5625C14.25 6.375 14.8125 6.94141 14.8125 7.63672C14.8125 8.10938 14.5469 8.54297 14.1289 8.75781L12.3398 9.67188C12.1289 9.77734 12 9.99219 12 10.2305V11.375C12 11.7188 12.2812 12 12.625 12C12.9688 12 13.25 11.7188 13.25 11.375V10.6055L14.6992 9.86719C15.5391 9.4375 16.0625 8.57031 16.0625 7.63281C16.0625 6.25781 14.9492 5.125 13.5625 5.125H11.332C10.3359 5.125 9.46875 5.79688 9.21484 6.75781ZM13.5625 13.875C13.5625 13.6264 13.4637 13.3879 13.2879 13.2121C13.1121 13.0363 12.8736 12.9375 12.625 12.9375C12.3764 12.9375 12.1379 13.0363 11.9621 13.2121C11.7863 13.3879 11.6875 13.6264 11.6875 13.875C11.6875 14.1236 11.7863 14.3621 11.9621 14.5379C12.1379 14.7137 12.3764 14.8125 12.625 14.8125C12.8736 14.8125 13.1121 14.7137 13.2879 14.5379C13.4637 14.3621 13.5625 14.1236 13.5625 13.875Z" fill="#0077B2"/>
</g>
</svg>
