<svg width="93" height="26" viewBox="0 0 93 26" fill="none" xmlns="http://www.w3.org/2000/svg">
<g id="Mill Luck">
<path id="Vector" d="M80.5419 19.6747C80.2609 19.6747 80.1484 19.5623 80.1484 19.2812V0.393494C80.1484 0.112427 80.2609 0 80.5419 0H82.9591C83.2402 0 83.3526 0.112427 83.3526 0.393494V11.2989L88.3275 5.81809C88.4399 5.70567 88.6648 5.62135 88.8615 5.62135H91.7284C92.0657 5.62135 92.0657 5.90241 91.7565 6.23969L87.9059 10.4838L92.6278 19.1688C92.8246 19.5061 92.6559 19.6747 92.403 19.6747H89.5361C89.2831 19.6747 89.1145 19.5342 89.0302 19.3936L85.6293 12.9853L83.3526 15.4868V19.2812C83.3526 19.5623 83.2402 19.6747 82.9591 19.6747H80.5419Z" fill="white"/>
<path id="Vector_2" d="M73.4616 19.9558C69.892 19.9558 67.5029 17.4262 67.5029 13.7724V11.5238C67.5029 7.89805 69.892 5.34033 73.4616 5.34033C75.2604 5.34033 76.6938 5.98679 77.7338 6.99863C77.9586 7.22348 78.0711 7.36402 77.9024 7.53266L76.2441 9.19095C76.1036 9.33149 75.9349 9.33149 75.7101 9.13474C74.9231 8.43207 74.2485 8.17911 73.4616 8.17911C71.6627 8.17911 70.7071 9.41581 70.7071 11.5238V13.7724C70.7071 15.8804 71.7189 17.1171 73.4616 17.1171C74.2485 17.1171 74.895 16.836 75.7663 16.1614C75.9912 15.9928 76.1317 15.9647 76.3284 16.1895L77.9024 17.7916C78.0711 17.9603 77.9586 18.1008 77.7338 18.3256C76.7219 19.3375 75.2604 19.9558 73.4616 19.9558Z" fill="white"/>
<path id="Vector_3" d="M58.1062 19.9558C54.5367 19.9558 52.9346 17.3981 52.9346 13.7723V6.01483C52.9346 5.73376 53.047 5.62134 53.3281 5.62134H55.7452C56.0263 5.62134 56.1387 5.73376 56.1387 6.01483V13.4069C56.1387 15.7117 57.0944 16.9202 58.8932 16.9202C60.692 16.9202 61.6477 15.7117 61.6477 13.4069V6.01483C61.6477 5.73376 61.7601 5.62134 62.0412 5.62134H64.4302C64.7113 5.62134 64.8237 5.73376 64.8237 6.01483V19.2812C64.8237 19.5623 64.7113 19.6747 64.4302 19.6747H62.013C61.732 19.6747 61.6196 19.5623 61.6196 19.2812V18.4661C60.945 19.2531 59.8207 19.9558 58.1062 19.9558Z" fill="white"/>
<path id="Vector_4" d="M45.1997 25.6899C44.9186 25.6899 44.8062 25.5494 44.8062 25.2964L44.8065 0.39447C44.8065 0.14151 44.9189 0.000976562 45.2 0.000976562H47.7858C48.0669 0.000976562 48.1793 0.14151 48.1793 0.39447L48.179 22.6544H92.3588C92.6399 22.6544 92.7523 22.7949 92.7523 23.0198V25.2964C92.7523 25.5494 92.6399 25.6899 92.3588 25.6899H45.1997Z" fill="white"/>
<path id="Vector_5" d="M40.958 19.6747C37.3603 19.6747 35.3647 18.3256 35.3647 14.6155V0.393494C35.3647 0.112427 35.4772 0 35.7582 0H38.1754C38.4565 0 38.5689 0.112427 38.5689 0.393494V14.3906C38.5689 16.3019 39.3559 16.864 40.958 16.864C41.2391 16.864 41.3515 16.9484 41.3515 17.2294V19.3093C41.3515 19.5623 41.2391 19.6747 40.958 19.6747Z" fill="white"/>
<path id="Vector_6" d="M32.854 19.6747C29.2563 19.6747 27.2607 18.3256 27.2607 14.6155V0.393494C27.2607 0.112427 27.3732 0 27.6542 0H30.0714C30.3525 0 30.4649 0.112427 30.4649 0.393494V14.3906C30.4649 16.3019 31.2519 16.864 32.854 16.864C33.135 16.864 33.2475 16.9484 33.2475 17.2294V19.3093C33.2475 19.5623 33.135 19.6747 32.854 19.6747Z" fill="white"/>
<path id="Vector_7" d="M21.0656 19.6747C20.7845 19.6747 20.6721 19.5623 20.6721 19.2812V6.01484C20.6721 5.73377 20.7845 5.62135 21.0656 5.62135H23.4266C23.7076 5.62135 23.8201 5.73377 23.8201 6.01484V19.2812C23.8201 19.5623 23.7076 19.6747 23.4266 19.6747H21.0656ZM22.2461 3.62577C21.2624 3.62577 20.4473 3.00742 20.4473 1.82694C20.4473 0.618349 21.2624 0 22.2461 0C23.2579 0 24.0449 0.618349 24.0449 1.82694C24.0449 3.00742 23.2579 3.62577 22.2461 3.62577Z" fill="white"/>
<path id="Vector_8" d="M0.393494 25.9998C0.112427 25.9998 0 25.8592 0 25.6063V0.393494C0 0.140533 0.112427 0 0.393494 0H2.58582C2.81067 0 2.9231 0.112427 3.03553 0.281067L8.46013 9.50008L13.8566 0.281067C13.969 0.0562144 14.1096 0 14.2782 0H16.4705C16.7516 0 16.864 0.140533 16.864 0.393494V25.6063C16.864 25.8592 16.7516 25.9998 16.4705 25.9998H14.0253C13.7442 25.9998 13.6318 25.8592 13.6318 25.6063V6.80183L9.55629 13.9128C9.44386 14.0815 9.33143 14.1939 9.13469 14.1939H7.81367C7.61692 14.1939 7.5045 14.0815 7.39207 13.9128L3.23227 6.82994V25.6063C3.23227 25.8592 3.11985 25.9998 2.83878 25.9998H0.393494Z" fill="white"/>
</g>
</svg>
