<svg width="16" height="20" viewBox="0 0 16 20" fill="none" xmlns="http://www.w3.org/2000/svg">
<path id="Primary" d="M14.375 6.25V17.5C14.375 18.1914 13.8164 18.75 13.125 18.75H3.125C2.43359 18.75 1.875 18.1914 1.875 17.5V6.25H14.375ZM14.375 5H1.875V2.5C1.875 1.80859 2.43359 1.25 3.125 1.25H13.125C13.8164 1.25 14.375 1.80859 14.375 2.5V5ZM15.625 5V2.5C15.625 1.12109 14.5039 0 13.125 0H3.125C1.74609 0 0.625 1.12109 0.625 2.5V5V5.625V6.25V17.5C0.625 18.8789 1.74609 20 3.125 20H13.125C14.5039 20 15.625 18.8789 15.625 17.5V6.25V5.625V5ZM3.4375 8.75C3.4375 8.99864 3.53627 9.2371 3.71209 9.41291C3.8879 9.58873 4.12636 9.6875 4.375 9.6875C4.62364 9.6875 4.8621 9.58873 5.03791 9.41291C5.21373 9.2371 5.3125 8.99864 5.3125 8.75C5.3125 8.50136 5.21373 8.2629 5.03791 8.08709C4.8621 7.91127 4.62364 7.8125 4.375 7.8125C4.12636 7.8125 3.8879 7.91127 3.71209 8.08709C3.53627 8.2629 3.4375 8.50136 3.4375 8.75ZM4.375 11.5625C4.12636 11.5625 3.8879 11.6613 3.71209 11.8371C3.53627 12.0129 3.4375 12.2514 3.4375 12.5C3.4375 12.7486 3.53627 12.9871 3.71209 13.1629C3.8879 13.3387 4.12636 13.4375 4.375 13.4375C4.62364 13.4375 4.8621 13.3387 5.03791 13.1629C5.21373 12.9871 5.3125 12.7486 5.3125 12.5C5.3125 12.2514 5.21373 12.0129 5.03791 11.8371C4.8621 11.6613 4.62364 11.5625 4.375 11.5625ZM7.1875 8.75C7.1875 8.99864 7.28627 9.2371 7.46209 9.41291C7.6379 9.58873 7.87636 9.6875 8.125 9.6875C8.37364 9.6875 8.6121 9.58873 8.78791 9.41291C8.96373 9.2371 9.0625 8.99864 9.0625 8.75C9.0625 8.50136 8.96373 8.2629 8.78791 8.08709C8.6121 7.91127 8.37364 7.8125 8.125 7.8125C7.87636 7.8125 7.6379 7.91127 7.46209 8.08709C7.28627 8.2629 7.1875 8.50136 7.1875 8.75ZM8.125 11.5625C7.87636 11.5625 7.6379 11.6613 7.46209 11.8371C7.28627 12.0129 7.1875 12.2514 7.1875 12.5C7.1875 12.7486 7.28627 12.9871 7.46209 13.1629C7.6379 13.3387 7.87636 13.4375 8.125 13.4375C8.37364 13.4375 8.6121 13.3387 8.78791 13.1629C8.96373 12.9871 9.0625 12.7486 9.0625 12.5C9.0625 12.2514 8.96373 12.0129 8.78791 11.8371C8.6121 11.6613 8.37364 11.5625 8.125 11.5625ZM10.9375 8.75C10.9375 8.99864 11.0363 9.2371 11.2121 9.41291C11.3879 9.58873 11.6264 9.6875 11.875 9.6875C12.1236 9.6875 12.3621 9.58873 12.5379 9.41291C12.7137 9.2371 12.8125 8.99864 12.8125 8.75C12.8125 8.50136 12.7137 8.2629 12.5379 8.08709C12.3621 7.91127 12.1236 7.8125 11.875 7.8125C11.6264 7.8125 11.3879 7.91127 11.2121 8.08709C11.0363 8.2629 10.9375 8.50136 10.9375 8.75ZM11.875 11.5625C11.6264 11.5625 11.3879 11.6613 11.2121 11.8371C11.0363 12.0129 10.9375 12.2514 10.9375 12.5C10.9375 12.7486 11.0363 12.9871 11.2121 13.1629C11.3879 13.3387 11.6264 13.4375 11.875 13.4375C12.1236 13.4375 12.3621 13.3387 12.5379 13.1629C12.7137 12.9871 12.8125 12.7486 12.8125 12.5C12.8125 12.2514 12.7137 12.0129 12.5379 11.8371C12.3621 11.6613 12.1236 11.5625 11.875 11.5625ZM10.9375 16.25C10.9375 16.4986 11.0363 16.7371 11.2121 16.9129C11.3879 17.0887 11.6264 17.1875 11.875 17.1875C12.1236 17.1875 12.3621 17.0887 12.5379 16.9129C12.7137 16.7371 12.8125 16.4986 12.8125 16.25C12.8125 16.0014 12.7137 15.7629 12.5379 15.5871C12.3621 15.4113 12.1236 15.3125 11.875 15.3125C11.6264 15.3125 11.3879 15.4113 11.2121 15.5871C11.0363 15.7629 10.9375 16.0014 10.9375 16.25ZM3.75 15.625C3.40625 15.625 3.125 15.9062 3.125 16.25C3.125 16.5938 3.40625 16.875 3.75 16.875H8.75C9.09375 16.875 9.375 16.5938 9.375 16.25C9.375 15.9062 9.09375 15.625 8.75 15.625H3.75Z" fill="#0077B2"/>
</svg>
