<svg width="24" height="24" viewBox="0 0 24 24" fill="none" xmlns="http://www.w3.org/2000/svg">
<g id="Regular / search">
<path id="&#239;&#128;&#130;" d="M21.7067 20.3984L16.4673 15.1641C17.6012 13.7969 18.2268 12.0391 18.2268 10.125C18.2268 5.67188 14.5513 2 10.0938 2C5.59726 2 2 5.67188 2 10.125C2 14.6172 5.63636 18.25 10.0938 18.25C11.9707 18.25 13.7302 17.625 15.1378 16.4922L20.3773 21.7266C20.5728 21.9219 20.8074 22 21.0811 22C21.3157 22 21.5503 21.9219 21.7067 21.7266C22.0978 21.375 22.0978 20.7891 21.7067 20.3984ZM3.87683 10.125C3.87683 6.6875 6.65298 3.875 10.1329 3.875C13.5738 3.875 16.3891 6.6875 16.3891 10.125C16.3891 13.6016 13.5738 16.375 10.1329 16.375C6.65298 16.375 3.87683 13.6016 3.87683 10.125Z" fill="white"/>
</g>
</svg>
