<svg width="24" height="24" viewBox="0 0 24 24" fill="none" xmlns="http://www.w3.org/2000/svg">
<g id="Regular / user">
<path id="Primary" d="M15.2143 7C15.2143 6.1712 14.8756 5.37634 14.2728 4.79029C13.67 4.20424 12.8525 3.875 12 3.875C11.1475 3.875 10.33 4.20424 9.72716 4.79029C9.12436 5.37634 8.78571 6.1712 8.78571 7C8.78571 7.8288 9.12436 8.62366 9.72716 9.20971C10.33 9.79576 11.1475 10.125 12 10.125C12.8525 10.125 13.67 9.79576 14.2728 9.20971C14.8756 8.62366 15.2143 7.8288 15.2143 7ZM6.85714 7C6.85714 5.67392 7.39898 4.40215 8.36345 3.46447C9.32792 2.52678 10.636 2 12 2C13.364 2 14.6721 2.52678 15.6365 3.46447C16.601 4.40215 17.1429 5.67392 17.1429 7C17.1429 8.32608 16.601 9.59785 15.6365 10.5355C14.6721 11.4732 13.364 12 12 12C10.636 12 9.32792 11.4732 8.36345 10.5355C7.39898 9.59785 6.85714 8.32608 6.85714 7ZM4.9808 20.125H19.0192C18.6616 17.6523 16.4759 15.75 13.8362 15.75H10.1638C7.52411 15.75 5.33839 17.6523 4.9808 20.125ZM3 20.8398C3 16.9922 6.20625 13.875 10.1638 13.875H13.8362C17.7938 13.875 21 16.9922 21 20.8398C21 21.4805 20.4656 22 19.8067 22H4.1933C3.53438 22 3 21.4805 3 20.8398Z" fill="white"/>
</g>
</svg>
